<svg width="30" height="86" viewBox="0 0 30 86" fill="none" xmlns="http://www.w3.org/2000/svg">
    <path d="M15.063 50.6481C15.063 42.6018 29.9831 44.8664 29.9831 35.8101V26.1589C29.9831 35.2128 15.063 32.9505 15.063 40.9968V50.6481ZM15.063 50.6481C15.063 42.6018 0.138184 44.8664 0.138184 35.8101V26.1589C0.138184 35.2128 15.063 32.9505 15.063 40.9968V50.6481Z" fill="url(#paint0_linear)"/>
    <path d="M15.063 63.7491C15.063 55.698 29.9831 57.9651 29.9831 48.9088V39.2623C29.9831 48.3162 15.063 46.0516 15.063 54.1027V63.7491ZM15.063 63.7491C15.063 55.698 0.138184 57.9651 0.138184 48.9088V39.2623C0.138184 48.3162 15.063 46.0516 15.063 54.1027V63.7491Z" fill="url(#paint1_linear)"/>
    <path d="M28.9646 7.56171C28.6939 7.56171 28.4342 7.66989 28.2427 7.86244C28.0513 8.055 27.9437 8.31617 27.9437 8.58849V17.8031C26.6389 19.0194 24.8428 19.8591 23.03 20.6364V5.19627C23.0173 4.93223 22.9041 4.68321 22.7138 4.50085C22.5235 4.31849 22.2707 4.21677 22.0079 4.21677C21.745 4.21677 21.4923 4.31849 21.302 4.50085C21.1117 4.68321 20.9985 4.93223 20.9858 5.19627V21.5096C19.0012 22.3732 17.1693 23.3089 16.0816 24.7483V1.02678C16.0816 0.754462 15.974 0.493296 15.7826 0.300738C15.5911 0.108179 15.3314 0 15.0607 0C14.7899 0 14.5302 0.108179 14.3388 0.300738C14.1473 0.493296 14.0397 0.754462 14.0397 1.02678V24.7387C12.9544 23.2993 11.1154 22.3612 9.12602 21.5V5.18668C9.12602 4.91436 9.01846 4.65319 8.827 4.46064C8.63554 4.26808 8.37587 4.1599 8.10511 4.1599C7.83434 4.1599 7.57467 4.26808 7.38321 4.46064C7.19176 4.65319 7.0842 4.91436 7.0842 5.18668V20.6244C5.26182 19.8447 3.48238 19.0074 2.18001 17.7935V8.58849C2.18001 8.31617 2.07244 8.055 1.88099 7.86244C1.68953 7.66989 1.42986 7.56171 1.15909 7.56171C0.888332 7.56171 0.628658 7.66989 0.4372 7.86244C0.245742 8.055 0.138184 8.31617 0.138184 8.58849V22.7067C0.138184 31.763 15.063 29.4983 15.063 37.547C15.063 29.4983 29.9831 31.763 29.9831 22.7067V8.58849C29.9831 8.31658 29.8759 8.05578 29.685 7.86329C29.494 7.6708 29.235 7.56234 28.9646 7.56171Z" fill="url(#paint2_linear)"/>
    <path d="M1.32636 71.5291H6.9199V67.3476C6.92914 67.206 6.99159 67.0733 7.09458 66.9762C7.19757 66.8792 7.33338 66.8253 7.47449 66.8253C7.61559 66.8253 7.75141 66.8792 7.85439 66.9762C7.95738 67.0733 8.01983 67.206 8.02907 67.3476V76.26C8.03405 76.3363 8.0234 76.4129 7.99778 76.4849C7.97217 76.5569 7.93213 76.6229 7.88014 76.6787C7.82816 76.7345 7.76533 76.779 7.69555 76.8095C7.62578 76.8399 7.55054 76.8556 7.47449 76.8556C7.39843 76.8556 7.32319 76.8399 7.25342 76.8095C7.18364 76.779 7.12082 76.7345 7.06883 76.6787C7.01684 76.6229 6.9768 76.5569 6.95119 76.4849C6.92557 76.4129 6.91492 76.3363 6.9199 76.26V72.4887H1.32636V76.2672C1.32636 77.0613 0.233887 76.9677 0.233887 76.2672V67.3476C0.233887 66.5991 1.32636 66.6447 1.32636 67.3476V71.5291Z" fill="#363431"/>
    <path d="M17.3006 76.3272C16.5866 76.6672 15.81 76.8543 15.0203 76.8765C12.4227 76.8765 10.0803 74.739 10.0803 71.7115C10.0695 70.5381 10.4804 69.4003 11.2372 68.5073C11.9941 67.6143 13.0461 67.0261 14.1997 66.851C15.9791 66.6111 17.5391 67.0502 18.7318 68.3168C19.1874 68.8374 18.3668 69.4636 17.9423 69.0054C16.907 67.9042 15.7072 67.7363 14.3643 67.8898C12.4966 68.1801 11.1728 69.5116 11.1728 71.7282C11.1728 74.0505 12.9522 75.8234 15.0489 75.8234C15.6624 75.8121 16.2652 75.6603 16.8116 75.3796C17.2929 75.1299 17.7171 74.7818 18.0568 74.3576C18.4074 73.837 19.3353 74.4008 18.9393 74.9669C18.5133 75.5496 17.9503 76.017 17.3006 76.3272Z" fill="#363431"/>
    <path d="M21.8876 74.1417L20.6591 76.5575C20.3848 77.1212 19.3806 76.7254 19.6549 76.1137L24.2442 67.019C24.2921 66.9276 24.3649 66.8517 24.454 66.8003C24.5431 66.7489 24.6449 66.7241 24.7475 66.7287C24.846 66.7279 24.9427 66.7547 25.0269 66.8059C25.1111 66.8572 25.1796 66.9309 25.2246 67.019L29.7972 76.0681C30.1932 76.7254 29.0697 77.1092 28.7811 76.5119L27.5884 74.1417H21.8876ZM24.7499 68.3624L22.3455 73.1772H27.1328L24.7499 68.3624Z" fill="#363431"/>
    <defs>
        <linearGradient id="paint0_linear" x1="14.9676" y1="50.6481" x2="15.1124" y2="20.6315" gradientUnits="userSpaceOnUse">
            <stop offset="0.14" stop-color="#34529C"/>
            <stop offset="0.66" stop-color="#4F80C1"/>
        </linearGradient>
        <linearGradient id="paint1_linear" x1="15.2563" y1="70.8142" x2="15.0343" y2="40.7953" gradientUnits="userSpaceOnUse">
            <stop offset="0.21" stop-color="#AF191C"/>
            <stop offset="0.91" stop-color="#C20D19"/>
        </linearGradient>
        <linearGradient id="paint2_linear" x1="15.0464" y1="32.7994" x2="15.0729" y2="2.78286" gradientUnits="userSpaceOnUse">
            <stop offset="0.02" stop-color="#CECFD1"/>
            <stop offset="0.74" stop-color="#EBEAEB"/>
        </linearGradient>
    </defs>
</svg>
