<svg width="50" height="50" viewBox="0 0 50 50" fill="none" xmlns="http://www.w3.org/2000/svg">
    <path d="M47.6562 7.8125H2.34375C2.24115 7.8125 2.13956 7.8327 2.04478 7.87196C1.94999 7.91122 1.86386 7.96877 1.79132 8.04132C1.71877 8.11386 1.66122 8.19999 1.62196 8.29478C1.5827 8.38956 1.5625 8.49115 1.5625 8.59375V41.4062C1.5625 41.5088 1.5827 41.6104 1.62196 41.7052C1.66122 41.8 1.71877 41.8861 1.79132 41.9587C1.86386 42.0312 1.94999 42.0888 2.04478 42.128C2.13956 42.1673 2.24115 42.1875 2.34375 42.1875H19.047L19.5464 44.6845C19.5767 44.836 19.6512 44.9751 19.7606 45.0843C19.87 45.1934 20.0093 45.2677 20.1609 45.2977C20.3125 45.3277 20.4695 45.312 20.6122 45.2528C20.7549 45.1935 20.8768 45.0932 20.9625 44.9646L22.8139 42.1875H27.1861L29.0375 44.9646C29.1232 45.0932 29.2451 45.1934 29.3878 45.2527C29.5305 45.312 29.6875 45.3276 29.8391 45.2976C29.9907 45.2676 30.13 45.1934 30.2394 45.0842C30.3487 44.9751 30.4233 44.836 30.4536 44.6845L30.953 42.1875H47.6562C47.7588 42.1875 47.8604 42.1673 47.9552 42.128C48.05 42.0888 48.1361 42.0312 48.2087 41.9587C48.2812 41.8861 48.3388 41.8 48.378 41.7052C48.4173 41.6104 48.4375 41.5088 48.4375 41.4062V8.59375C48.4375 8.49115 48.4173 8.38956 48.378 8.29478C48.3388 8.19999 48.2812 8.11386 48.2087 8.04132C48.1361 7.96877 48.05 7.91122 47.9552 7.87196C47.8604 7.8327 47.7588 7.8125 47.6562 7.8125ZM20.7087 42.5286L20.2973 40.4718C20.2772 40.3712 20.2375 40.2755 20.1804 40.1903C20.1233 40.105 20.05 40.0318 19.9646 39.9749C19.8793 39.918 19.7835 39.8785 19.6829 39.8586C19.5822 39.8387 19.4786 39.8388 19.378 39.8589L17.3213 40.2703L20.1715 35.995C21.0573 37.0739 22.2784 37.8256 23.6407 38.1306L20.7087 42.5286ZM25 36.7188C24.0729 36.7188 23.1666 36.4438 22.3958 35.9288C21.6249 35.4137 21.0241 34.6816 20.6693 33.8251C20.3145 32.9685 20.2217 32.026 20.4026 31.1168C20.5834 30.2075 21.0299 29.3722 21.6854 28.7167C22.341 28.0611 23.1762 27.6147 24.0855 27.4338C24.9948 27.253 25.9373 27.3458 26.7938 27.7006C27.6504 28.0553 28.3824 28.6562 28.8975 29.427C29.4126 30.1979 29.6875 31.1042 29.6875 32.0312C29.6861 33.274 29.1918 34.4655 28.313 35.3443C27.4342 36.223 26.2428 36.7173 25 36.7188ZM23.8556 40.625L25 38.9084L26.1444 40.625H23.8556ZM29.7027 40.4718L29.2913 42.5286L26.3593 38.1306C27.7216 37.8256 28.9427 37.0739 29.8285 35.995L32.6787 40.2703L30.622 39.8589C30.4188 39.8183 30.2078 39.8601 30.0354 39.975C29.863 40.0899 29.7433 40.2686 29.7027 40.4718H29.7027ZM46.875 40.625H34.7931L32.7098 37.5H42.9688C43.0713 37.5 43.1729 37.4798 43.2677 37.4405C43.3625 37.4013 43.4486 37.3437 43.5212 37.2712C43.5937 37.1986 43.6513 37.1125 43.6905 37.0177C43.7298 36.9229 43.75 36.8213 43.75 36.7188V13.2812C43.75 13.1787 43.7298 13.0771 43.6905 12.9823C43.6513 12.8875 43.5937 12.8014 43.5212 12.7288C43.4486 12.6563 43.3625 12.5987 43.2677 12.5595C43.1729 12.5202 43.0713 12.5 42.9688 12.5H38.2812V14.0625H42.1875V35.9375H31.6681L30.7282 34.5277C30.8609 34.2255 30.9693 33.9132 31.0522 33.5938H36.7188V32.0312H31.25C31.25 30.3736 30.5915 28.7839 29.4194 27.6118C28.2473 26.4397 26.6576 25.7812 25 25.7812C23.3424 25.7812 21.7527 26.4397 20.5806 27.6118C19.4085 28.7839 18.75 30.3736 18.75 32.0312H13.2812V33.5938H18.9478C19.0307 33.9132 19.1391 34.2255 19.2718 34.5277L18.3319 35.9375H7.8125V14.0625H11.7188V12.5H7.03125C6.92865 12.5 6.82706 12.5202 6.73228 12.5595C6.63749 12.5987 6.55136 12.6563 6.47882 12.7288C6.40627 12.8014 6.34872 12.8875 6.30946 12.9823C6.2702 13.0771 6.25 13.1787 6.25 13.2812V36.7188C6.25 36.8213 6.2702 36.9229 6.30946 37.0177C6.34872 37.1125 6.40627 37.1986 6.47882 37.2712C6.55136 37.3437 6.63749 37.4013 6.73228 37.4405C6.82706 37.4798 6.92865 37.5 7.03125 37.5H17.2902L15.2069 40.625H3.125V9.375H46.875V40.625Z" fill="white"/>
    <path d="M30.4688 21.875H35.1562V23.4375H30.4688V21.875Z" fill="white"/>
    <path d="M21.0938 21.875H28.9062V23.4375H21.0938V21.875Z" fill="white"/>
    <path d="M14.8438 21.875H19.5312V23.4375H14.8438V21.875Z" fill="white"/>
    <path d="M16.4062 17.9688C16.4063 18.098 16.4383 18.2253 16.4996 18.3391C16.5609 18.453 16.6495 18.5498 16.7574 18.621C16.8654 18.6921 16.9893 18.7354 17.118 18.7469C17.2468 18.7584 17.3764 18.7377 17.4953 18.6868L20.8097 17.2663C22.1339 16.6989 23.5594 16.4063 25 16.4063C26.4406 16.4063 27.8661 16.6989 29.1903 17.2663L32.5047 18.6868C32.6236 18.7377 32.7532 18.7584 32.882 18.7469C33.0107 18.7354 33.1346 18.6921 33.2426 18.621C33.3505 18.5498 33.4391 18.453 33.5004 18.3391C33.5617 18.2253 33.5937 18.098 33.5938 17.9688V14.0625H36.7188V12.5H31.4343L31.2695 12.4176C29.3229 11.4442 27.1764 10.9375 25 10.9375C22.8236 10.9375 20.6771 11.4442 18.7305 12.4176L18.5656 12.5H13.2812V14.0625H16.4062V17.9688ZM25 12.5C26.9335 12.5023 28.8403 12.9524 30.5707 13.8151L32.0312 14.5453V16.784L29.8058 15.8302C28.2872 15.1793 26.6522 14.8438 25 14.8438C23.3478 14.8438 21.7128 15.1793 20.1942 15.8302L17.9688 16.784V14.5453L19.4293 13.8151C21.1597 12.9524 23.0665 12.5023 25 12.5Z" fill="white"/>
    <path d="M22.6562 18.75H27.3438V20.3125H22.6562V18.75Z" fill="white"/>
    <path d="M25.3906 31.25H24.6094C24.4022 31.25 24.2035 31.3323 24.0569 31.4788C23.9104 31.6253 23.8281 31.824 23.8281 32.0312C23.8281 32.2385 23.9104 32.4372 24.0569 32.5837C24.2035 32.7302 24.4022 32.8125 24.6094 32.8125H25.3906C25.5978 32.8125 25.7965 32.7302 25.9431 32.5837C26.0896 32.4372 26.1719 32.2385 26.1719 32.0312C26.1719 31.824 26.0896 31.6253 25.9431 31.4788C25.7965 31.3323 25.5978 31.25 25.3906 31.25Z" fill="white"/>
    <path d="M38.2812 32.0312H39.8438V33.5938H38.2812V32.0312Z" fill="white"/>
    <path d="M10.1562 32.0312H11.7188V33.5938H10.1562V32.0312Z" fill="white"/>
</svg>
