<svg width="50" height="50" viewBox="0 0 50 50" fill="none" xmlns="http://www.w3.org/2000/svg">
    <path d="M48.3875 9.90625C48.3789 9.88125 48.3727 9.85703 48.3617 9.83281C48.3237 9.74781 48.2708 9.67029 48.2055 9.60391L40.393 1.79141C40.3264 1.72602 40.2486 1.6731 40.1633 1.63516C40.1398 1.625 40.1172 1.61875 40.093 1.61016C40.0262 1.58691 39.9565 1.57323 39.8859 1.56953C39.8734 1.57031 39.8594 1.5625 39.8438 1.5625H17.9688C17.7615 1.5625 17.5628 1.64481 17.4163 1.79132C17.2698 1.93784 17.1875 2.13655 17.1875 2.34375V17.1875H18.75V3.125H39.0625V10.1562C39.0625 10.3635 39.1448 10.5622 39.2913 10.7087C39.4378 10.8552 39.6366 10.9375 39.8438 10.9375H46.875V42.1875H30.4688V43.75H47.6563C47.8635 43.75 48.0622 43.6677 48.2087 43.5212C48.3552 43.3747 48.4375 43.1759 48.4375 42.9688V10.1562C48.4375 10.1391 48.4289 10.1242 48.4273 10.107C48.4235 10.0386 48.41 9.971 48.3875 9.90625ZM40.625 9.375V4.22969L45.7703 9.375H40.625Z" fill="white"/>
    <path d="M4.10156 48.4375H27.1484C27.62 48.4375 28.0822 48.3062 28.4833 48.0583C28.8844 47.8104 29.2086 47.4557 29.4194 47.0339C29.6303 46.6122 29.7196 46.1401 29.6772 45.6704C29.6349 45.2008 29.4626 44.7522 29.1797 44.375L27.3438 41.9274V32.9844C27.3542 30.9307 26.7118 28.9269 25.5092 27.2622C24.3066 25.5974 22.6061 24.358 20.6531 23.7227L22.5781 19.8805C22.6378 19.761 22.6659 19.6283 22.6597 19.4949C22.6535 19.3616 22.6132 19.232 22.5427 19.1186C22.4722 19.0053 22.3738 18.9118 22.2569 18.8473C22.14 18.7828 22.0085 18.7493 21.875 18.75H9.375C9.24182 18.7499 9.11083 18.7839 8.99448 18.8487C8.87812 18.9136 8.78027 19.007 8.71021 19.1203C8.64015 19.2336 8.60021 19.3629 8.59419 19.4959C8.58816 19.629 8.61625 19.7613 8.67578 19.8805L10.5969 23.7227C8.64394 24.358 6.94341 25.5974 5.74082 27.2622C4.53822 28.9269 3.89578 30.9307 3.90625 32.9844V41.9274L2.07031 44.375C1.78739 44.7522 1.61511 45.2008 1.57276 45.6704C1.53041 46.1401 1.61968 46.6122 1.83056 47.0339C2.04143 47.4557 2.36559 47.8104 2.7667 48.0583C3.16781 48.3062 3.63003 48.4375 4.10156 48.4375ZM20.6109 20.3125L19.0484 23.4375H12.2016L10.6391 20.3125H20.6109ZM3.32031 45.3125L5.3125 42.6563C5.41392 42.521 5.46875 42.3565 5.46875 42.1875V32.9844C5.45958 31.1312 6.08246 29.3302 7.23461 27.8787C8.38676 26.4271 9.99934 25.4117 11.8063 25H19.4438C21.2507 25.4117 22.8632 26.4271 24.0154 27.8787C25.1675 29.3302 25.7904 31.1312 25.7813 32.9844V42.1875C25.7813 42.3565 25.8361 42.521 25.9375 42.6563L27.9297 45.3125C28.0385 45.4576 28.1048 45.6301 28.1211 45.8107C28.1373 45.9914 28.103 46.173 28.0219 46.3352C27.9408 46.4974 27.8161 46.6338 27.6618 46.7292C27.5076 46.8245 27.3298 46.875 27.1484 46.875H4.10156C3.9202 46.875 3.74243 46.8245 3.58815 46.7292C3.43388 46.6338 3.30921 46.4974 3.2281 46.3352C3.14699 46.173 3.11266 45.9914 3.12895 45.8107C3.14523 45.6301 3.2115 45.4576 3.32031 45.3125Z" fill="white"/>
    <path d="M14.4531 36.7188H16.7969C17.1077 36.7188 17.4057 36.8422 17.6255 37.062C17.8453 37.2818 17.9688 37.5798 17.9688 37.8906C17.9688 38.2014 17.8453 38.4995 17.6255 38.7193C17.4057 38.939 17.1077 39.0625 16.7969 39.0625H12.5V40.625H14.8438V42.1875H16.4062V40.625H16.7969C17.5221 40.625 18.2176 40.3369 18.7304 39.8241C19.2432 39.3113 19.5312 38.6158 19.5312 37.8906C19.5312 37.1654 19.2432 36.4699 18.7304 35.9571C18.2176 35.4443 17.5221 35.1562 16.7969 35.1562H14.4531C14.1423 35.1562 13.8443 35.0328 13.6245 34.813C13.4047 34.5932 13.2812 34.2952 13.2812 33.9844C13.2812 33.6736 13.4047 33.3755 13.6245 33.1557C13.8443 32.936 14.1423 32.8125 14.4531 32.8125H18.75V31.25H16.4062V29.6875H14.8438V31.25H14.4531C13.7279 31.25 13.0324 31.5381 12.5196 32.0509C12.0068 32.5637 11.7188 33.2592 11.7188 33.9844C11.7188 34.7096 12.0068 35.4051 12.5196 35.9179C13.0324 36.4307 13.7279 36.7188 14.4531 36.7188Z" fill="white"/>
    <path d="M32.0312 7.03125C30.6794 7.0284 29.3644 6.59008 28.2813 5.78125L27.0312 4.84375C26.896 4.74233 26.7315 4.6875 26.5625 4.6875C26.3935 4.6875 26.229 4.74233 26.0938 4.84375L24.8437 5.78125C23.7606 6.59008 22.4456 7.0284 21.0938 7.03125C20.8865 7.03125 20.6878 7.11356 20.5413 7.26007C20.3948 7.40659 20.3125 7.6053 20.3125 7.8125V12.1234C20.3133 13.0878 20.5684 14.035 21.0522 14.8692C21.536 15.7035 22.2313 16.3953 23.068 16.875L26.1719 18.6469C26.2899 18.7143 26.4235 18.7497 26.5594 18.7497C26.6953 18.7497 26.8289 18.7143 26.9469 18.6469L30.057 16.875C30.8937 16.3953 31.589 15.7035 32.0728 14.8692C32.5566 14.035 32.8117 13.0878 32.8125 12.1234V7.8125C32.8125 7.6053 32.7302 7.40659 32.5837 7.26007C32.4372 7.11356 32.2385 7.03125 32.0312 7.03125ZM31.25 12.1234C31.2492 12.8119 31.0668 13.4879 30.7213 14.0833C30.3758 14.6788 29.8793 15.1726 29.282 15.5148L26.5625 17.0687L23.843 15.5148C23.2457 15.1726 22.7492 14.6788 22.4037 14.0833C22.0582 13.4879 21.8758 12.8119 21.875 12.1234V8.55391C23.2908 8.40869 24.6407 7.88248 25.7812 7.03125L26.5625 6.44531L27.3438 7.03125C28.4843 7.88248 29.8342 8.40869 31.25 8.55391V12.1234Z" fill="white"/>
    <path d="M27.3438 8.59375H25.7812V10.1562H27.3438V8.59375Z" fill="white"/>
    <path d="M27.3438 13.2812H25.7812V14.8438H27.3438V13.2812Z" fill="white"/>
    <path d="M25 10.8727H23.4375V12.4352H25V10.8727Z" fill="white"/>
    <path d="M29.6875 10.9375H28.125V12.5H29.6875V10.9375Z" fill="white"/>
    <path d="M43.75 21.0938H24.2188V22.6562H43.75V21.0938Z" fill="white"/>
    <path d="M35.1562 25H27.3438V26.5625H35.1562V25Z" fill="white"/>
    <path d="M43.75 25H36.7188V26.5625H43.75V25Z" fill="white"/>
    <path d="M43.75 28.9062H29.6875V30.4688H43.75V28.9062Z" fill="white"/>
    <path d="M38.2812 32.8125H29.6875V34.375H38.2812V32.8125Z" fill="white"/>
    <path d="M43.75 32.8125H39.8438V34.375H43.75V32.8125Z" fill="white"/>
    <path d="M43.75 36.7188H29.6875V38.2812H43.75V36.7188Z" fill="white"/>
    <path d="M43.75 17.1875H35.9375V18.75H43.75V17.1875Z" fill="white"/>
    <path d="M43.75 13.2812H35.9375V14.8438H43.75V13.2812Z" fill="white"/>
</svg>
