<svg width="35" height="88" viewBox="0 0 35 88" fill="none" xmlns="http://www.w3.org/2000/svg">
    <path d="M17.2634 57.5842C17.2634 48.436 34.3631 51.0108 34.3631 40.7142V29.7412C34.3631 40.035 17.2634 37.463 17.2634 46.6112V57.5842ZM17.2634 57.5842C17.2634 48.436 0.158203 51.0108 0.158203 40.7142V29.7412C0.158203 40.035 17.2634 37.463 17.2634 46.6112V57.5842Z" fill="url(#paint0_linear)"/>
    <path d="M17.2634 72.4797C17.2634 63.326 34.3631 65.9035 34.3631 55.607V44.6394C34.3631 54.9332 17.2634 52.3584 17.2634 61.5121V72.4797ZM17.2634 72.4797C17.2634 63.326 0.158203 65.9035 0.158203 55.607V44.6394C0.158203 54.9332 17.2634 52.3584 17.2634 61.5121V72.4797Z" fill="url(#paint1_linear)"/>
    <path d="M33.1958 8.59729C32.8854 8.59729 32.5878 8.72028 32.3684 8.93921C32.149 9.15814 32.0257 9.45507 32.0257 9.76469V20.2413C30.5303 21.6241 28.4718 22.5788 26.3941 23.4625V5.90791C26.3796 5.6077 26.2498 5.32458 26.0317 5.11725C25.8137 4.90991 25.524 4.79426 25.2227 4.79426C24.9215 4.79426 24.6318 4.90991 24.4137 5.11725C24.1956 5.32458 24.0658 5.6077 24.0513 5.90791V24.4554C21.7768 25.4373 19.6773 26.501 18.4307 28.1376V1.1674C18.4307 0.857787 18.3074 0.560853 18.088 0.341924C17.8686 0.122994 17.571 0 17.2606 0C16.9503 0 16.6527 0.122994 16.4333 0.341924C16.2139 0.560853 16.0906 0.857787 16.0906 1.1674V28.1267C14.8467 26.4901 12.739 25.4236 10.459 24.4444V5.897C10.459 5.58738 10.3358 5.29045 10.1163 5.07152C9.8969 4.85259 9.59929 4.7296 9.28898 4.7296C8.97866 4.7296 8.68105 4.85259 8.46163 5.07152C8.2422 5.29045 8.11893 5.58738 8.11893 5.897V23.4489C6.03033 22.5624 3.99094 21.6105 2.49831 20.2304V9.76469C2.49831 9.45507 2.37503 9.15814 2.1556 8.93921C1.93618 8.72028 1.63857 8.59729 1.32825 8.59729C1.01794 8.59729 0.720329 8.72028 0.500902 8.93921C0.281475 9.15814 0.158203 9.45507 0.158203 9.76469V25.8164C0.158203 36.113 17.2634 33.5381 17.2634 42.6891C17.2634 33.5381 34.3631 36.113 34.3631 25.8164V9.76469C34.3631 9.45554 34.2402 9.15902 34.0213 8.94017C33.8025 8.72132 33.5056 8.59801 33.1958 8.59729Z" fill="url(#paint2_linear)"/>
    <path d="M1.51964 81.325H7.93032V76.5709C7.94091 76.4099 8.01248 76.2589 8.13051 76.1486C8.24855 76.0383 8.40421 75.977 8.56592 75.977C8.72764 75.977 8.8833 76.0383 9.00133 76.1486C9.11936 76.2589 9.19093 76.4099 9.20152 76.5709V86.7038C9.20723 86.7906 9.19502 86.8776 9.16567 86.9595C9.13631 87.0414 9.09042 87.1164 9.03084 87.1798C8.97126 87.2433 8.89925 87.2939 8.81929 87.3285C8.73932 87.3631 8.65308 87.3809 8.56592 87.3809C8.47876 87.3809 8.39253 87.3631 8.31256 87.3285C8.23259 87.2939 8.16059 87.2433 8.10101 87.1798C8.04143 87.1164 7.99554 87.0414 7.96618 86.9595C7.93682 86.8776 7.92462 86.7906 7.93032 86.7038V82.4161H1.51964V86.712C1.51964 87.6148 0.267578 87.5084 0.267578 86.712V76.5709C0.267578 75.7199 1.51964 75.7717 1.51964 76.5709V81.325Z" fill="#64A400"/>
    <path d="M19.8281 86.7803C19.0097 87.167 18.1197 87.3797 17.2146 87.4049C14.2375 87.4049 11.553 84.9747 11.553 81.5325C11.5406 80.1984 12.0115 78.9048 12.8789 77.8895C13.7463 76.8742 14.952 76.2055 16.2742 76.0064C18.3136 75.7337 20.1015 76.2328 21.4683 77.673C21.9905 78.2649 21.0501 78.9768 20.5635 78.4558C19.377 77.2038 18.0019 77.0129 16.4628 77.1875C14.3223 77.5175 12.805 79.0313 12.805 81.5516C12.805 84.1919 14.8444 86.2075 17.2474 86.2075C17.9505 86.1947 18.6414 86.0222 19.2677 85.7029C19.8193 85.4191 20.3054 85.0233 20.6947 84.541C21.0965 83.9491 22.16 84.5901 21.7062 85.2338C21.2179 85.8963 20.5727 86.4277 19.8281 86.7803Z" fill="#64A400"/>
    <path d="M25.0853 84.2955L23.6774 87.0422C23.3631 87.6831 22.2121 87.2331 22.5265 86.5376L27.7863 76.1974C27.8411 76.0934 27.9245 76.0072 28.0267 75.9487C28.1288 75.8903 28.2455 75.8621 28.3631 75.8673C28.4759 75.8665 28.5868 75.8969 28.6833 75.9551C28.7798 76.0134 28.8583 76.0972 28.9099 76.1974L34.1505 86.4857C34.6043 87.2331 33.3167 87.6695 32.9859 86.9903L31.619 84.2955H25.0853ZM28.3658 77.7248L25.6102 83.199H31.0969L28.3658 77.7248Z" fill="#64A400"/>
    <defs>
        <linearGradient id="paint0_linear" x1="17.154" y1="57.5842" x2="17.3173" y2="23.4569" gradientUnits="userSpaceOnUse">
            <stop offset="0.14" stop-color="#34529C"/>
            <stop offset="0.66" stop-color="#4F80C1"/>
        </linearGradient>
        <linearGradient id="paint1_linear" x1="17.4848" y1="80.5124" x2="17.2344" y2="46.3823" gradientUnits="userSpaceOnUse">
            <stop offset="0.21" stop-color="#AF191C"/>
            <stop offset="0.91" stop-color="#C20D19"/>
        </linearGradient>
        <linearGradient id="paint2_linear" x1="17.2442" y1="37.2913" x2="17.2742" y2="3.16397" gradientUnits="userSpaceOnUse">
            <stop offset="0.02" stop-color="#CECFD1"/>
            <stop offset="0.74" stop-color="#EBEAEB"/>
        </linearGradient>
    </defs>
</svg>
