<svg width="27" height="27" viewBox="0 0 27 27" fill="none" xmlns="http://www.w3.org/2000/svg">
    <path d="M19.2502 17H18.0652L17.6452 16.595C18.5826 15.506 19.2677 14.2232 19.6515 12.8384C20.0353 11.4537 20.1083 10.0012 19.8652 8.585C19.1602 4.415 15.6802 1.085 11.4802 0.575C10.0036 0.388199 8.50389 0.541658 7.09574 1.02363C5.6876 1.50561 4.40837 2.30333 3.35595 3.35575C2.30353 4.40817 1.50582 5.68739 1.02384 7.09554C0.541864 8.50368 0.388405 10.0034 0.575206 11.48C1.08521 15.68 4.41521 19.16 8.58521 19.865C10.0014 20.1081 11.4539 20.0351 12.8386 19.6513C14.2234 19.2675 15.5062 18.5824 16.5952 17.645L17.0002 18.065V19.25L23.3752 25.625C23.9902 26.24 24.9952 26.24 25.6102 25.625C26.2252 25.01 26.2252 24.005 25.6102 23.39L19.2502 17ZM10.2502 17C6.5152 17 3.50021 13.985 3.50021 10.25C3.50021 6.515 6.5152 3.5 10.2502 3.5C13.9852 3.5 17.0002 6.515 17.0002 10.25C17.0002 13.985 13.9852 17 10.2502 17Z" fill="#64A400"/>
</svg>
