<svg xmlns="http://www.w3.org/2000/svg" display="none">

    <symbol id="message" viewBox="0 0 50 50">
        <g>
            <path d="M33.7891 31.1523C33.2498 31.1523 32.8125 31.5896 32.8125 32.1289V38.8672C32.8125 41.5596 30.6221 43.75 27.9297 43.75H17.3859C16.8468 43.75 16.4098 44.1868 16.4094 44.7259L16.408 46.6675L14.0771 44.3367C13.9263 43.9903 13.581 43.75 13.1815 43.75H6.83594C4.14355 43.75 1.95312 41.5596 1.95312 38.8672V23.8281C1.95312 21.1357 4.14355 18.9453 6.83594 18.9453H16.6992C17.2385 18.9453 17.6758 18.5081 17.6758 17.9688C17.6758 17.4294 17.2385 16.9922 16.6992 16.9922H6.83594C3.0666 16.9922 0 20.0588 0 23.8281V38.8672C0 42.6365 3.0666 45.7031 6.83594 45.7031H12.6814L16.6923 49.714C16.8791 49.9008 17.1288 50 17.383 50C17.5087 50 17.6355 49.9757 17.7562 49.9258C18.1211 49.7748 18.3591 49.4189 18.3594 49.0241L18.3617 45.7031H27.9297C31.699 45.7031 34.7656 42.6365 34.7656 38.8672V32.1289C34.7656 31.5896 34.3283 31.1523 33.7891 31.1523Z"/>
            <path d="M35.8062 0H33.3346C25.508 0 19.1406 6.36738 19.1406 14.1939C19.1406 22.0205 25.508 28.3878 33.3345 28.3878H35.8061C37.0276 28.3878 38.2367 28.2326 39.4086 27.926L43.0597 31.575C43.2465 31.7616 43.4961 31.8608 43.7502 31.8608C43.8761 31.8608 44.003 31.8365 44.1238 31.7864C44.4887 31.6353 44.7266 31.2792 44.7266 30.8843V25.2343C46.2724 23.9824 47.5564 22.4011 48.4576 20.6345C49.4812 18.628 50 16.4611 50 14.1939C50 6.36738 43.6326 0 35.8062 0ZM43.1624 23.978C42.9176 24.1625 42.7734 24.4514 42.7734 24.7581V28.5276L40.3837 26.1392C40.1978 25.9534 39.9483 25.8533 39.6933 25.8533C39.5976 25.8533 39.5009 25.8675 39.4065 25.8965C38.2441 26.2537 37.0328 26.4348 35.8062 26.4348H33.3346C26.5849 26.4348 21.0938 20.9436 21.0938 14.1939C21.0938 7.44434 26.585 1.95312 33.3346 1.95312H35.8062C42.5558 1.95312 48.0469 7.44434 48.0469 14.1939C48.0469 18.0739 46.2666 21.6401 43.1624 23.978Z"/>
            <path d="M38.9679 10.6856C38.827 8.64121 37.1789 6.99316 35.1344 6.85224C33.9754 6.77265 32.8693 7.16357 32.0228 7.9539C31.1878 8.7333 30.709 9.83506 30.709 10.9768C30.709 11.5161 31.1463 11.9533 31.6855 11.9533C32.2248 11.9533 32.6621 11.5161 32.6621 10.9768C32.6621 10.3655 32.9084 9.79902 33.3555 9.38174C33.8021 8.96484 34.3859 8.75849 35.0002 8.80088C36.0771 8.87509 36.9452 9.74316 37.0194 10.82C37.0944 11.9076 36.3809 12.8687 35.3229 13.1055C34.4656 13.2973 33.867 14.0422 33.867 14.9169V17.2631C33.867 17.8024 34.3043 18.2396 34.8436 18.2396C35.3829 18.2396 35.8201 17.8024 35.82 17.2631V14.9949C37.7878 14.5195 39.108 12.7189 38.9679 10.6856Z"/>
            <path d="M35.5342 20.4355C35.3525 20.2539 35.1006 20.1494 34.8438 20.1494C34.5869 20.1494 34.335 20.2539 34.1533 20.4355C33.9717 20.6172 33.8672 20.8691 33.8672 21.126C33.8672 21.3838 33.9718 21.6357 34.1533 21.8174C34.335 21.999 34.5869 22.1025 34.8438 22.1025C35.1006 22.1025 35.3525 21.999 35.5342 21.8174C35.7158 21.6348 35.8203 21.3838 35.8203 21.126C35.8203 20.8691 35.7157 20.6172 35.5342 20.4355Z"/>
            <path d="M26.8555 30.2734H6.25C5.71074 30.2734 5.27344 30.7106 5.27344 31.25C5.27344 31.7894 5.71074 32.2266 6.25 32.2266H26.8555C27.3948 32.2266 27.832 31.7894 27.832 31.25C27.832 30.7106 27.3947 30.2734 26.8555 30.2734Z"/>
            <path d="M27.5458 36.0283C27.3643 35.8467 27.1123 35.7422 26.8555 35.7422C26.5986 35.7422 26.3467 35.8467 26.165 36.0283C25.9833 36.21 25.8789 36.4619 25.8789 36.7188C25.8789 36.9756 25.9834 37.2275 26.165 37.4092C26.3467 37.5908 26.5986 37.6953 26.8555 37.6953C27.1123 37.6953 27.3643 37.5908 27.5458 37.4092C27.7275 37.2275 27.832 36.9766 27.832 36.7188C27.832 36.4619 27.7274 36.21 27.5458 36.0283Z"/>
            <path d="M23.0144 35.7422H6.25C5.71074 35.7422 5.27344 36.1794 5.27344 36.7188C5.27344 37.2581 5.71074 37.6953 6.25 37.6953H23.0144C23.5537 37.6953 23.9909 37.2581 23.9909 36.7188C23.9909 36.1794 23.5536 35.7422 23.0144 35.7422Z"/>
            <path d="M20.5078 24.8047H6.25C5.71074 24.8047 5.27344 25.2419 5.27344 25.7812C5.27344 26.3206 5.71074 26.7578 6.25 26.7578H20.5078C21.0472 26.7578 21.4844 26.3206 21.4844 25.7812C21.4844 25.2419 21.0471 24.8047 20.5078 24.8047Z"/>

        </g>
    </symbol>

    <symbol id="certificate" viewBox="0 0 50 50">
        <g>
            <path d="M47.6562 7.8125H2.34375C2.24115 7.8125 2.13956 7.8327 2.04478 7.87196C1.94999 7.91122 1.86386 7.96877 1.79132 8.04132C1.71877 8.11386 1.66122 8.19999 1.62196 8.29478C1.5827 8.38956 1.5625 8.49115 1.5625 8.59375V41.4062C1.5625 41.5088 1.5827 41.6104 1.62196 41.7052C1.66122 41.8 1.71877 41.8861 1.79132 41.9587C1.86386 42.0312 1.94999 42.0888 2.04478 42.128C2.13956 42.1673 2.24115 42.1875 2.34375 42.1875H19.047L19.5464 44.6845C19.5767 44.836 19.6512 44.9751 19.7606 45.0843C19.87 45.1934 20.0093 45.2677 20.1609 45.2977C20.3125 45.3277 20.4695 45.312 20.6122 45.2528C20.7549 45.1935 20.8768 45.0932 20.9625 44.9646L22.8139 42.1875H27.1861L29.0375 44.9646C29.1232 45.0932 29.2451 45.1934 29.3878 45.2527C29.5305 45.312 29.6875 45.3276 29.8391 45.2976C29.9907 45.2676 30.13 45.1934 30.2394 45.0842C30.3487 44.9751 30.4233 44.836 30.4536 44.6845L30.953 42.1875H47.6562C47.7588 42.1875 47.8604 42.1673 47.9552 42.128C48.05 42.0888 48.1361 42.0312 48.2087 41.9587C48.2812 41.8861 48.3388 41.8 48.378 41.7052C48.4173 41.6104 48.4375 41.5088 48.4375 41.4062V8.59375C48.4375 8.49115 48.4173 8.38956 48.378 8.29478C48.3388 8.19999 48.2812 8.11386 48.2087 8.04132C48.1361 7.96877 48.05 7.91122 47.9552 7.87196C47.8604 7.8327 47.7588 7.8125 47.6562 7.8125ZM20.7087 42.5286L20.2973 40.4718C20.2772 40.3712 20.2375 40.2755 20.1804 40.1903C20.1233 40.105 20.05 40.0318 19.9646 39.9749C19.8793 39.918 19.7835 39.8785 19.6829 39.8586C19.5822 39.8387 19.4786 39.8388 19.378 39.8589L17.3213 40.2703L20.1715 35.995C21.0573 37.0739 22.2784 37.8256 23.6407 38.1306L20.7087 42.5286ZM25 36.7188C24.0729 36.7188 23.1666 36.4438 22.3958 35.9288C21.6249 35.4137 21.0241 34.6816 20.6693 33.8251C20.3145 32.9685 20.2217 32.026 20.4026 31.1168C20.5834 30.2075 21.0299 29.3722 21.6854 28.7167C22.341 28.0611 23.1762 27.6147 24.0855 27.4338C24.9948 27.253 25.9373 27.3458 26.7938 27.7006C27.6504 28.0553 28.3824 28.6562 28.8975 29.427C29.4126 30.1979 29.6875 31.1042 29.6875 32.0312C29.6861 33.274 29.1918 34.4655 28.313 35.3443C27.4342 36.223 26.2428 36.7173 25 36.7188ZM23.8556 40.625L25 38.9084L26.1444 40.625H23.8556ZM29.7027 40.4718L29.2913 42.5286L26.3593 38.1306C27.7216 37.8256 28.9427 37.0739 29.8285 35.995L32.6787 40.2703L30.622 39.8589C30.4188 39.8183 30.2078 39.8601 30.0354 39.975C29.863 40.0899 29.7433 40.2686 29.7027 40.4718H29.7027ZM46.875 40.625H34.7931L32.7098 37.5H42.9688C43.0713 37.5 43.1729 37.4798 43.2677 37.4405C43.3625 37.4013 43.4486 37.3437 43.5212 37.2712C43.5937 37.1986 43.6513 37.1125 43.6905 37.0177C43.7298 36.9229 43.75 36.8213 43.75 36.7188V13.2812C43.75 13.1787 43.7298 13.0771 43.6905 12.9823C43.6513 12.8875 43.5937 12.8014 43.5212 12.7288C43.4486 12.6563 43.3625 12.5987 43.2677 12.5595C43.1729 12.5202 43.0713 12.5 42.9688 12.5H38.2812V14.0625H42.1875V35.9375H31.6681L30.7282 34.5277C30.8609 34.2255 30.9693 33.9132 31.0522 33.5938H36.7188V32.0312H31.25C31.25 30.3736 30.5915 28.7839 29.4194 27.6118C28.2473 26.4397 26.6576 25.7812 25 25.7812C23.3424 25.7812 21.7527 26.4397 20.5806 27.6118C19.4085 28.7839 18.75 30.3736 18.75 32.0312H13.2812V33.5938H18.9478C19.0307 33.9132 19.1391 34.2255 19.2718 34.5277L18.3319 35.9375H7.8125V14.0625H11.7188V12.5H7.03125C6.92865 12.5 6.82706 12.5202 6.73228 12.5595C6.63749 12.5987 6.55136 12.6563 6.47882 12.7288C6.40627 12.8014 6.34872 12.8875 6.30946 12.9823C6.2702 13.0771 6.25 13.1787 6.25 13.2812V36.7188C6.25 36.8213 6.2702 36.9229 6.30946 37.0177C6.34872 37.1125 6.40627 37.1986 6.47882 37.2712C6.55136 37.3437 6.63749 37.4013 6.73228 37.4405C6.82706 37.4798 6.92865 37.5 7.03125 37.5H17.2902L15.2069 40.625H3.125V9.375H46.875V40.625Z"/>
            <path d="M30.4688 21.875H35.1562V23.4375H30.4688V21.875Z"/>
            <path d="M21.0938 21.875H28.9062V23.4375H21.0938V21.875Z"/>
            <path d="M14.8438 21.875H19.5312V23.4375H14.8438V21.875Z"/>
            <path d="M16.4062 17.9688C16.4063 18.098 16.4383 18.2253 16.4996 18.3391C16.5609 18.453 16.6495 18.5498 16.7574 18.621C16.8654 18.6921 16.9893 18.7354 17.118 18.7469C17.2468 18.7584 17.3764 18.7377 17.4953 18.6868L20.8097 17.2663C22.1339 16.6989 23.5594 16.4063 25 16.4063C26.4406 16.4063 27.8661 16.6989 29.1903 17.2663L32.5047 18.6868C32.6236 18.7377 32.7532 18.7584 32.882 18.7469C33.0107 18.7354 33.1346 18.6921 33.2426 18.621C33.3505 18.5498 33.4391 18.453 33.5004 18.3391C33.5617 18.2253 33.5937 18.098 33.5938 17.9688V14.0625H36.7188V12.5H31.4343L31.2695 12.4176C29.3229 11.4442 27.1764 10.9375 25 10.9375C22.8236 10.9375 20.6771 11.4442 18.7305 12.4176L18.5656 12.5H13.2812V14.0625H16.4062V17.9688ZM25 12.5C26.9335 12.5023 28.8403 12.9524 30.5707 13.8151L32.0312 14.5453V16.784L29.8058 15.8302C28.2872 15.1793 26.6522 14.8438 25 14.8438C23.3478 14.8438 21.7128 15.1793 20.1942 15.8302L17.9688 16.784V14.5453L19.4293 13.8151C21.1597 12.9524 23.0665 12.5023 25 12.5Z"/>
            <path d="M22.6562 18.75H27.3438V20.3125H22.6562V18.75Z"/>
            <path d="M25.3906 31.25H24.6094C24.4022 31.25 24.2035 31.3323 24.0569 31.4788C23.9104 31.6253 23.8281 31.824 23.8281 32.0312C23.8281 32.2385 23.9104 32.4372 24.0569 32.5837C24.2035 32.7302 24.4022 32.8125 24.6094 32.8125H25.3906C25.5978 32.8125 25.7965 32.7302 25.9431 32.5837C26.0896 32.4372 26.1719 32.2385 26.1719 32.0312C26.1719 31.824 26.0896 31.6253 25.9431 31.4788C25.7965 31.3323 25.5978 31.25 25.3906 31.25Z"/>
            <path d="M38.2812 32.0312H39.8438V33.5938H38.2812V32.0312Z"/>
            <path d="M10.1562 32.0312H11.7188V33.5938H10.1562V32.0312Z"/>
        </g>
    </symbol>

    <symbol id="pay" viewBox="0 0 50 50">
        <g>
            <path d="M48.3875 9.90625C48.3789 9.88125 48.3727 9.85703 48.3617 9.83281C48.3237 9.74781 48.2708 9.67029 48.2055 9.60391L40.393 1.79141C40.3264 1.72602 40.2486 1.6731 40.1633 1.63516C40.1398 1.625 40.1172 1.61875 40.093 1.61016C40.0262 1.58691 39.9565 1.57323 39.8859 1.56953C39.8734 1.57031 39.8594 1.5625 39.8438 1.5625H17.9688C17.7615 1.5625 17.5628 1.64481 17.4163 1.79132C17.2698 1.93784 17.1875 2.13655 17.1875 2.34375V17.1875H18.75V3.125H39.0625V10.1562C39.0625 10.3635 39.1448 10.5622 39.2913 10.7087C39.4378 10.8552 39.6366 10.9375 39.8438 10.9375H46.875V42.1875H30.4688V43.75H47.6563C47.8635 43.75 48.0622 43.6677 48.2087 43.5212C48.3552 43.3747 48.4375 43.1759 48.4375 42.9688V10.1562C48.4375 10.1391 48.4289 10.1242 48.4273 10.107C48.4235 10.0386 48.41 9.971 48.3875 9.90625ZM40.625 9.375V4.22969L45.7703 9.375H40.625Z" fill="white"/>
            <path d="M4.10156 48.4375H27.1484C27.62 48.4375 28.0822 48.3062 28.4833 48.0583C28.8844 47.8104 29.2086 47.4557 29.4194 47.0339C29.6303 46.6122 29.7196 46.1401 29.6772 45.6704C29.6349 45.2008 29.4626 44.7522 29.1797 44.375L27.3438 41.9274V32.9844C27.3542 30.9307 26.7118 28.9269 25.5092 27.2622C24.3066 25.5974 22.6061 24.358 20.6531 23.7227L22.5781 19.8805C22.6378 19.761 22.6659 19.6283 22.6597 19.4949C22.6535 19.3616 22.6132 19.232 22.5427 19.1186C22.4722 19.0053 22.3738 18.9118 22.2569 18.8473C22.14 18.7828 22.0085 18.7493 21.875 18.75H9.375C9.24182 18.7499 9.11083 18.7839 8.99448 18.8487C8.87812 18.9136 8.78027 19.007 8.71021 19.1203C8.64015 19.2336 8.60021 19.3629 8.59419 19.4959C8.58816 19.629 8.61625 19.7613 8.67578 19.8805L10.5969 23.7227C8.64394 24.358 6.94341 25.5974 5.74082 27.2622C4.53822 28.9269 3.89578 30.9307 3.90625 32.9844V41.9274L2.07031 44.375C1.78739 44.7522 1.61511 45.2008 1.57276 45.6704C1.53041 46.1401 1.61968 46.6122 1.83056 47.0339C2.04143 47.4557 2.36559 47.8104 2.7667 48.0583C3.16781 48.3062 3.63003 48.4375 4.10156 48.4375ZM20.6109 20.3125L19.0484 23.4375H12.2016L10.6391 20.3125H20.6109ZM3.32031 45.3125L5.3125 42.6563C5.41392 42.521 5.46875 42.3565 5.46875 42.1875V32.9844C5.45958 31.1312 6.08246 29.3302 7.23461 27.8787C8.38676 26.4271 9.99934 25.4117 11.8063 25H19.4438C21.2507 25.4117 22.8632 26.4271 24.0154 27.8787C25.1675 29.3302 25.7904 31.1312 25.7813 32.9844V42.1875C25.7813 42.3565 25.8361 42.521 25.9375 42.6563L27.9297 45.3125C28.0385 45.4576 28.1048 45.6301 28.1211 45.8107C28.1373 45.9914 28.103 46.173 28.0219 46.3352C27.9408 46.4974 27.8161 46.6338 27.6618 46.7292C27.5076 46.8245 27.3298 46.875 27.1484 46.875H4.10156C3.9202 46.875 3.74243 46.8245 3.58815 46.7292C3.43388 46.6338 3.30921 46.4974 3.2281 46.3352C3.14699 46.173 3.11266 45.9914 3.12895 45.8107C3.14523 45.6301 3.2115 45.4576 3.32031 45.3125Z"/>
            <path d="M14.4531 36.7188H16.7969C17.1077 36.7188 17.4057 36.8422 17.6255 37.062C17.8453 37.2818 17.9688 37.5798 17.9688 37.8906C17.9688 38.2014 17.8453 38.4995 17.6255 38.7193C17.4057 38.939 17.1077 39.0625 16.7969 39.0625H12.5V40.625H14.8438V42.1875H16.4062V40.625H16.7969C17.5221 40.625 18.2176 40.3369 18.7304 39.8241C19.2432 39.3113 19.5312 38.6158 19.5312 37.8906C19.5312 37.1654 19.2432 36.4699 18.7304 35.9571C18.2176 35.4443 17.5221 35.1562 16.7969 35.1562H14.4531C14.1423 35.1562 13.8443 35.0328 13.6245 34.813C13.4047 34.5932 13.2812 34.2952 13.2812 33.9844C13.2812 33.6736 13.4047 33.3755 13.6245 33.1557C13.8443 32.936 14.1423 32.8125 14.4531 32.8125H18.75V31.25H16.4062V29.6875H14.8438V31.25H14.4531C13.7279 31.25 13.0324 31.5381 12.5196 32.0509C12.0068 32.5637 11.7188 33.2592 11.7188 33.9844C11.7188 34.7096 12.0068 35.4051 12.5196 35.9179C13.0324 36.4307 13.7279 36.7188 14.4531 36.7188Z"/>
            <path d="M32.0312 7.03125C30.6794 7.0284 29.3644 6.59008 28.2813 5.78125L27.0312 4.84375C26.896 4.74233 26.7315 4.6875 26.5625 4.6875C26.3935 4.6875 26.229 4.74233 26.0938 4.84375L24.8437 5.78125C23.7606 6.59008 22.4456 7.0284 21.0938 7.03125C20.8865 7.03125 20.6878 7.11356 20.5413 7.26007C20.3948 7.40659 20.3125 7.6053 20.3125 7.8125V12.1234C20.3133 13.0878 20.5684 14.035 21.0522 14.8692C21.536 15.7035 22.2313 16.3953 23.068 16.875L26.1719 18.6469C26.2899 18.7143 26.4235 18.7497 26.5594 18.7497C26.6953 18.7497 26.8289 18.7143 26.9469 18.6469L30.057 16.875C30.8937 16.3953 31.589 15.7035 32.0728 14.8692C32.5566 14.035 32.8117 13.0878 32.8125 12.1234V7.8125C32.8125 7.6053 32.7302 7.40659 32.5837 7.26007C32.4372 7.11356 32.2385 7.03125 32.0312 7.03125ZM31.25 12.1234C31.2492 12.8119 31.0668 13.4879 30.7213 14.0833C30.3758 14.6788 29.8793 15.1726 29.282 15.5148L26.5625 17.0687L23.843 15.5148C23.2457 15.1726 22.7492 14.6788 22.4037 14.0833C22.0582 13.4879 21.8758 12.8119 21.875 12.1234V8.55391C23.2908 8.40869 24.6407 7.88248 25.7812 7.03125L26.5625 6.44531L27.3438 7.03125C28.4843 7.88248 29.8342 8.40869 31.25 8.55391V12.1234Z"/>
            <path d="M27.3438 8.59375H25.7812V10.1562H27.3438V8.59375Z"/>
            <path d="M27.3438 13.2812H25.7812V14.8438H27.3438V13.2812Z"/>
            <path d="M25 10.8727H23.4375V12.4352H25V10.8727Z"/>
            <path d="M29.6875 10.9375H28.125V12.5H29.6875V10.9375Z"/>
            <path d="M43.75 21.0938H24.2188V22.6562H43.75V21.0938Z"/>
            <path d="M35.1562 25H27.3438V26.5625H35.1562V25Z"/>
            <path d="M43.75 25H36.7188V26.5625H43.75V25Z"/>
            <path d="M43.75 28.9062H29.6875V30.4688H43.75V28.9062Z"/>
            <path d="M38.2812 32.8125H29.6875V34.375H38.2812V32.8125Z"/>
            <path d="M43.75 32.8125H39.8438V34.375H43.75V32.8125Z"/>
            <path d="M43.75 36.7188H29.6875V38.2812H43.75V36.7188Z"/>
            <path d="M43.75 17.1875H35.9375V18.75H43.75V17.1875Z"/>
            <path d="M43.75 13.2812H35.9375V14.8438H43.75V13.2812Z"/>
        </g>
    </symbol>

    <symbol id="category1" viewBox="0 0 20 20">
        <g>
            <g clip-path="url(#clip0)">
                <path d="M19.2599 3.73577H15.7861V0.581286C15.7861 0.260261 15.5259 0 15.2049 0C14.8838 0 14.6236 0.260261 14.6236 0.581286V2.173C13.4882 0.844066 11.8009 0 9.92 0C8.03938 0 6.35241 0.844066 5.21724 2.17308V0.581286C5.21724 0.260261 4.95697 0 4.63595 0C4.31492 0 4.05466 0.260261 4.05466 0.581286V3.73577H0.581286C0.260261 3.73577 0 3.99603 0 4.31706C0 6.59171 1.7685 8.46101 4.00277 8.6226C4.30663 10.3327 4.85715 12.4329 5.58814 14.3129C4.84192 14.8738 4.35833 15.7662 4.35833 16.7695C4.35833 18.4633 5.73632 19.8413 7.43015 19.8413H12.4111C14.1049 19.8413 15.4829 18.4633 15.4829 16.7695C15.4829 15.7658 14.999 14.8732 14.2524 14.3123C14.9837 12.4329 15.5344 10.3328 15.8384 8.62264C18.0727 8.46104 19.8412 6.59174 19.8412 4.31706C19.8412 3.99603 19.581 3.73577 19.2599 3.73577ZM3.82335 7.43213C2.50798 7.22438 1.46004 6.20151 1.21628 4.89834H3.87067C3.78251 5.3135 3.73573 5.74376 3.73573 6.18484C3.73569 6.52966 3.76573 6.95257 3.82335 7.43213ZM14.3203 16.7694C14.3203 17.8222 13.4639 18.6787 12.4112 18.6787H7.43015C6.37741 18.6787 5.5209 17.8222 5.5209 16.7694C5.5209 15.7167 6.37741 14.8602 7.43015 14.8602H12.4111C13.4638 14.8602 14.3203 15.7167 14.3203 16.7694ZM13.2031 13.8017C12.9503 13.7342 12.6849 13.6977 12.4112 13.6977H7.43015C7.15602 13.6977 6.89037 13.7343 6.63728 13.802C5.58848 11.0673 4.8983 7.73905 4.8983 6.18484C4.8983 3.41552 7.15102 1.16253 9.92 1.16253C12.6897 1.16257 14.943 3.41556 14.943 6.18488C14.943 7.73971 14.2524 11.068 13.2031 13.8017ZM16.0179 7.43213C16.0754 6.95265 16.1055 6.52978 16.1055 6.18484C16.1055 5.74376 16.0587 5.3135 15.9705 4.89834H18.625C18.3813 6.20151 17.3333 7.22442 16.0179 7.43213Z"/>
            </g>
            <defs>
                <clipPath id="clip0">
                    <rect width="19.8413" height="19.8413" fill="white"/>
                </clipPath>
            </defs>

        </g>
    </symbol>

    <symbol id="category2" viewBox="0 0 20 20">
        <g clip-path="url(#clip0)">
            <path d="M19.8412 0.581248C19.8412 0.260223 19.5809 0 19.2599 0C18.9389 3.87525e-05 18.6786 0.2603 18.6787 0.581326L18.6787 2.03032L16.1057 2.88791L16.1056 0.581365C16.1056 0.260339 15.8454 0.000116257 15.5243 0.000116257C15.2033 0.000116257 14.9431 0.260378 14.9431 0.581442L14.9432 2.88787L12.37 2.0302V0.581365C12.37 0.260339 12.1098 7.7505e-05 11.7887 7.7505e-05C11.4677 7.7505e-05 11.2075 0.260339 11.2075 0.581365V2.44912L11.2073 6.18482V6.18486V6.1849L11.2075 9.92079V13.6565C11.2075 13.9066 11.3676 14.1288 11.6049 14.2079L14.9431 15.3206L14.943 19.26C14.943 19.581 15.2032 19.8413 15.5242 19.8413C15.8452 19.8413 16.1055 19.581 16.1055 19.26L16.1056 15.3207L19.4438 14.2079C19.6811 14.1288 19.8413 13.9067 19.8413 13.6565L19.8413 9.92079V9.92075V6.18497V2.44923L19.8412 0.581248ZM14.943 14.0952L12.37 13.2375V10.7273L14.943 11.5849V14.0952ZM12.3699 6.99141L14.943 7.84924V10.3594L12.37 9.50184L12.3699 6.99141ZM14.9431 6.62373L12.3699 5.7659L12.3699 3.25563L14.9432 4.11334L14.9431 6.62373ZM18.6787 13.2375L16.1056 14.0952V11.5849L18.6787 10.7273L18.6787 13.2375ZM18.6788 9.50176L16.1056 10.3594V7.84924L16.9854 7.556L18.6788 6.99145V9.50176ZM18.6788 5.76598L18.1433 5.94451L16.1057 6.62373L16.1058 4.11334L18.6788 3.25575V5.76598Z"/>
            <path d="M8.63394 0.581248C8.6339 0.260223 8.37364 -3.87482e-05 8.05261 4.32707e-09C7.73158 3.87568e-05 7.47136 0.2603 7.47136 0.581326L7.47148 2.03032L4.89843 2.88791L4.89835 0.581365C4.89835 0.260339 4.63809 0.000116262 4.31706 0.000116262C3.99604 0.000116262 3.73574 0.260378 3.73574 0.581442L3.73582 2.88787L1.16273 2.0302V0.581365C1.16273 0.260339 0.902468 7.75093e-05 0.581442 7.75093e-05C0.260417 7.75093e-05 0.00015501 0.260339 0.00015501 0.581365V2.44912L0 6.18486V6.1849V6.18493L0.00015501 9.92087V13.6565C0.00015501 13.9067 0.160241 14.1288 0.397639 14.2079L3.73574 15.3207L3.73562 19.26C3.73562 19.581 3.99585 19.8413 4.31691 19.8413C4.63794 19.8413 4.8982 19.581 4.8982 19.26L4.89827 15.3207L8.23645 14.2079C8.47381 14.1288 8.6339 13.9067 8.6339 13.6565L8.63405 9.92083V9.92079V6.18501V2.44927V2.44923L8.63394 0.581248ZM3.73574 14.0952L1.16273 13.2375V10.7273L1.5625 10.8605L3.73574 11.5848V14.0952ZM3.73574 10.3594L3.46525 10.2693L1.16269 9.50184L1.16261 6.99141L3.73574 7.84924V10.3594ZM3.73578 6.62373L1.16257 5.76594L1.16265 3.25563L3.73582 4.11334L3.73578 6.62373ZM7.47136 13.2375L4.89831 14.0952V11.5849L7.47144 10.7273L7.47136 13.2375ZM7.47152 9.50176L4.89835 10.3594V7.84924L7.47152 6.99149V9.50176ZM7.47152 5.76598L4.89835 6.62373L4.89843 4.11334L7.47152 3.25575V5.76598Z"/>
        </g>
        <defs>
            <clipPath id="clip0">
                <rect width="19.8413" height="19.8413" fill="white"/>
            </clipPath>
        </defs>

    </symbol>

    <symbol id="category3" viewBox="0 0 20 20">
        <g clip-path="url(#clip0)">
            <path d="M18.2845 8.36403C18.2845 7.57456 17.9011 6.84493 17.2853 6.39063C17.5916 5.68921 17.5587 4.86576 17.164 4.18209C16.7733 3.50528 16.0798 3.05815 15.3119 2.97231C15.2263 2.21191 14.7862 1.5153 14.1025 1.12057C13.7304 0.905723 13.3075 0.792139 12.8798 0.792139C12.5381 0.792139 12.2024 0.863638 11.8937 0.998923C11.4394 0.383223 10.7099 0 9.92054 0C9.13119 0 8.40167 0.383262 7.9473 0.998923C7.63867 0.863676 7.30281 0.792139 6.96116 0.792139C6.53342 0.792139 6.11066 0.905684 5.73845 1.12049C5.05485 1.51522 4.6147 2.21195 4.5291 2.97228C3.76118 3.05811 3.0677 3.50524 2.67696 4.18197C2.28219 4.86568 2.24945 5.68925 2.55563 6.39063C1.93977 6.84497 1.5564 7.57456 1.5564 8.36406C1.5564 9.15353 1.93977 9.88316 2.55559 10.3375C2.24945 11.0388 2.28219 11.8624 2.67692 12.5461C3.06767 13.2229 3.76106 13.67 4.52906 13.7558C4.61463 14.5161 5.05478 15.2129 5.73845 15.6076C6.11055 15.8224 6.53338 15.936 6.96116 15.936C7.30281 15.936 7.63867 15.8645 7.9473 15.7292C8.28727 16.1899 8.78137 16.5204 9.33921 16.6576V19.26C9.33921 19.581 9.59947 19.8413 9.9205 19.8413C10.2415 19.8413 10.5018 19.581 10.5018 19.26V16.6576C11.0597 16.5204 11.5538 16.1899 11.8937 15.7292C12.2024 15.8645 12.5382 15.9359 12.8798 15.9359C13.3076 15.9359 13.7304 15.8224 14.1025 15.6075C14.7862 15.2129 15.2263 14.5161 15.3119 13.7558C16.0798 13.6699 16.7733 13.2228 17.164 12.546C17.5588 11.8623 17.5916 11.0388 17.2854 10.3375C17.9012 9.88316 18.2845 9.15353 18.2845 8.36403ZM16.275 9.57364C16.0967 9.63848 15.9612 9.78624 15.9121 9.9695C15.863 10.1528 15.9065 10.3485 16.0285 10.4938C16.3751 10.9065 16.4269 11.4977 16.1572 11.9647C15.928 12.3617 15.5005 12.6083 15.0413 12.6083C14.9668 12.6083 14.892 12.6017 14.8189 12.5888C14.6321 12.5558 14.4408 12.6161 14.3067 12.7502C14.1725 12.8843 14.1123 13.0756 14.1453 13.2624C14.2391 13.7932 13.9883 14.331 13.5213 14.6007C13.3256 14.7136 13.1039 14.7733 12.8798 14.7733C12.5763 14.7733 12.2816 14.6663 12.0503 14.472C11.9051 14.35 11.7094 14.3066 11.5261 14.3556C11.3428 14.4047 11.195 14.5402 11.1302 14.7184C11.0164 15.0314 10.7873 15.2805 10.5018 15.4256V8.91605L12.9731 6.44473C13.2001 6.21772 13.2001 5.84969 12.9731 5.62267C12.7461 5.39566 12.378 5.39566 12.151 5.62267L10.5017 7.27194V4.93955C10.5017 4.61852 10.2415 4.35826 9.92046 4.35826C9.59943 4.35826 9.33917 4.61852 9.33917 4.93955V8.67509C9.33917 8.67521 9.33917 8.67536 9.33917 8.67548V11.0078L7.68979 9.35845C7.46282 9.13144 7.09475 9.13144 6.86773 9.35845C6.64072 9.58546 6.64072 9.9535 6.86773 10.1805L9.33913 12.6519V15.4255C9.05368 15.2805 8.82462 15.0314 8.71084 14.7185C8.64601 14.5401 8.49824 14.4047 8.31494 14.3556C8.2653 14.3423 8.21477 14.3358 8.16455 14.3358C8.02938 14.3358 7.89661 14.383 7.79066 14.472C7.55923 14.6663 7.26464 14.7733 6.96109 14.7733C6.7371 14.7733 6.51524 14.7137 6.31966 14.6007C5.85257 14.331 5.60181 13.7932 5.69559 13.2624C5.7286 13.0756 5.66842 12.8843 5.53426 12.7502C5.40006 12.616 5.20878 12.5556 5.02203 12.5888C4.94894 12.6017 4.87411 12.6082 4.79963 12.6082C4.34041 12.6082 3.91282 12.3617 3.68367 11.9648C3.414 11.4977 3.46577 10.9065 3.81241 10.4937C3.93444 10.3484 3.97784 10.1527 3.92875 9.96946C3.87961 9.7862 3.74417 9.63844 3.56587 9.57361C3.05926 9.38941 2.71889 8.9033 2.71889 8.36403C2.71889 7.82471 3.0593 7.3386 3.56594 7.1544C3.74428 7.08961 3.87972 6.94181 3.92882 6.75855C3.97792 6.57529 3.93448 6.37959 3.81245 6.2343C3.46577 5.82147 3.41403 5.23031 3.68367 4.7633C3.91286 4.36636 4.34045 4.11981 4.79963 4.11981C4.87415 4.11981 4.94898 4.12636 5.02211 4.13927C5.20897 4.17229 5.40014 4.11199 5.53426 3.97786C5.66842 3.8437 5.72868 3.6525 5.69566 3.46567C5.60184 2.93488 5.85265 2.39703 6.31966 2.12736C6.51528 2.01443 6.73706 1.95471 6.96109 1.95471C7.26464 1.95471 7.55931 2.06175 7.7907 2.25609C7.93598 2.37812 8.13184 2.42153 8.31494 2.37243C8.49824 2.32333 8.64601 2.18785 8.71084 2.00955C8.89511 1.50298 9.38122 1.16257 9.92054 1.16257C10.4598 1.16257 10.9459 1.50298 11.1302 2.00963C11.195 2.18793 11.3428 2.32337 11.5261 2.37247C11.7092 2.4216 11.905 2.37812 12.0503 2.25609C12.2817 2.06175 12.5763 1.95475 12.8798 1.95475C13.1037 1.95475 13.3256 2.01447 13.5212 2.12739C13.9883 2.39707 14.2391 2.93492 14.1453 3.46575C14.1123 3.65258 14.1725 3.84378 14.3067 3.97794C14.4409 4.1121 14.6322 4.17232 14.8189 4.13931C14.892 4.1264 14.9668 4.11985 15.0413 4.11985C15.5004 4.11985 15.928 4.36644 16.1572 4.76342C16.4268 5.23042 16.3751 5.82155 16.0285 6.23438C15.9065 6.37967 15.8631 6.57537 15.9122 6.75863C15.9613 6.94189 16.0967 7.08961 16.275 7.15444C16.7816 7.3386 17.1219 7.82471 17.1219 8.36403C17.1219 8.90338 16.7816 9.38949 16.275 9.57364Z"/>
        </g>
        <defs>
            <clipPath id="clip0">
                <rect width="19.8413" height="19.8413" fill="white"/>
            </clipPath>
        </defs>

    </symbol>

    <symbol id="category4" viewBox="0 0 20 20">
            <g clip-path="url(#clip0)">
                <path d="M16.5717 3.07754C16.4206 3.22907 16.4206 3.4743 16.5717 3.62583C16.7232 3.7769 16.9685 3.7769 17.12 3.62583C17.2711 3.4743 17.2711 3.22907 17.12 3.07754C16.9685 2.92646 16.7232 2.92646 16.5717 3.07754Z"/>
                <path d="M16.5711 0.163553C14.2889 0.251655 11.5178 1.32946 9.31238 3.2577C7.89867 2.94783 6.40927 3.37775 5.38096 4.40605C4.92774 4.85912 4.92774 5.59648 5.38096 6.0497L6.64012 7.30886C5.84296 9.60767 5.69083 12.0616 5.6707 13.3138C4.98042 12.8568 4.17131 12.6113 3.3245 12.6113C2.18599 12.6113 1.11591 13.0545 0.310883 13.8596C0.159658 14.0108 0.159658 14.2562 0.310883 14.4074C1.11591 15.2123 2.18599 15.6556 3.3245 15.6556C3.83812 15.6556 4.33767 15.5651 4.80527 15.3921C4.6324 15.8599 4.54188 16.3594 4.54188 16.873C4.54188 18.0114 4.98511 19.0816 5.78998 19.8865C5.86567 19.9622 5.96482 20 6.06398 20C6.16313 20 6.26228 19.9622 6.33797 19.8865C7.14284 19.0816 7.58623 18.0114 7.58623 16.873C7.58623 16.0261 7.34069 15.217 6.88353 14.5267C8.13603 14.5067 10.59 14.3547 12.8888 13.5576L14.1478 14.8166C14.6009 15.2696 15.3383 15.2696 15.7913 14.8166C16.8196 13.7883 17.2495 12.299 16.9398 10.8854C18.6372 8.94222 19.946 6.19503 20.034 3.58574C20.0733 2.41635 19.7945 1.41575 19.288 0.909389C18.7753 0.396674 17.7597 0.117837 16.5711 0.163553ZM5.9288 4.95404C6.63633 4.2465 7.61075 3.88531 8.59076 3.9389C7.93969 4.61298 7.38762 5.4781 6.94484 6.51761L5.9288 5.50172C5.77787 5.3508 5.77787 5.10496 5.9288 4.95404ZM1.16662 14.1335C1.77909 13.6491 2.53159 13.3862 3.3245 13.3862C4.11742 13.3862 4.86991 13.6491 5.48238 14.1335C4.86991 14.618 4.11742 14.8807 3.3245 14.8807C2.53159 14.8807 1.77909 14.6178 1.16662 14.1335ZM6.06398 19.0309C5.57957 18.4184 5.31678 17.6659 5.31678 16.873C5.31678 16.0801 5.57957 15.3276 6.06398 14.7151C6.54838 15.3278 6.81133 16.0801 6.81133 16.873C6.81133 17.6659 6.54838 18.4184 6.06398 19.0309ZM15.2435 14.2686C15.0926 14.4197 14.8467 14.4197 14.6958 14.2686L13.6798 13.2527C14.7194 12.8098 15.5845 12.2578 16.2586 11.6068C16.3122 12.5868 15.951 13.5612 15.2435 14.2686ZM19.2595 3.5597C19.2235 4.6313 18.9323 5.86018 18.4377 7.03941C17.3552 7.30462 16.1737 7.09481 15.1681 6.45191C14.988 6.33672 14.7483 6.38939 14.633 6.56984C14.5178 6.74998 14.5705 6.98961 14.7508 7.10495C15.742 7.73847 16.9006 8.02518 18.0393 7.89575C17.5523 8.84504 16.9448 9.72575 16.2273 10.5215V10.5217C16.0868 10.6776 15.9401 10.8322 15.7913 10.9808C13.6489 13.1233 9.48298 13.7649 6.44469 13.7527C6.43167 10.7171 7.06973 6.55303 9.21671 4.4062C9.36657 4.25619 9.52098 4.10981 9.67614 3.97039C10.4724 3.25195 11.3534 2.64402 12.3027 2.15674C12.2134 2.95601 12.3275 3.78919 12.6403 4.56833C12.72 4.76724 12.9459 4.86306 13.144 4.78359C13.3426 4.70381 13.4391 4.47826 13.3593 4.27965C13.0298 3.45858 12.9603 2.5706 13.1586 1.75861C14.3243 1.26967 15.5399 0.978871 16.6009 0.937847C17.6784 0.896219 18.4516 1.169 18.7402 1.45737C19.0243 1.74151 19.2951 2.50188 19.2595 3.5597Z"/>
                <path d="M13.5222 5.47964C13.3711 5.63117 13.3711 5.8764 13.5222 6.02793C13.6737 6.179 13.919 6.179 14.0705 6.02793C14.2216 5.8764 14.2216 5.63117 14.0705 5.47964C13.919 5.32856 13.6737 5.32856 13.5222 5.47964Z"/>
            </g>
            <defs>
                <clipPath id="clip0">
                    <rect x="0.15873" y="0.158691" width="19.8413" height="19.8413" fill="white"/>
                </clipPath>
            </defs>

    </symbol>

    <symbol id="category5" viewBox="0 0 20 20">
            <g clip-path="url(#clip0)">
                <path d="M19.26 11.7471C19.581 11.7471 19.8413 11.4869 19.8413 11.1658V4.93958C19.8413 4.61856 19.581 4.3583 19.26 4.3583H17.9734V1.20385C17.9734 0.88282 17.7131 0.622559 17.3921 0.622559C17.0711 0.622559 16.8108 0.88282 16.8108 1.20385V4.35826H8.57178V1.78513H9.85832C10.1793 1.78513 10.4396 1.52487 10.4396 1.20385C10.4396 0.88282 10.1793 0.622559 9.85832 0.622559H6.12262C5.80159 0.622559 5.54133 0.88282 5.54133 1.20385C5.54133 1.52487 5.80159 1.78513 6.12262 1.78513H7.4092V4.93955V10.0022C6.68228 9.58081 5.83868 9.33931 4.93966 9.33931C4.49474 9.33931 4.06347 9.39879 3.65308 9.50963V6.76614H4.93966C5.26069 6.76614 5.52095 6.50588 5.52095 6.18486C5.52095 5.86383 5.26069 5.60357 4.93966 5.60357H1.78521V2.44912C1.78521 2.12809 1.52495 1.86783 1.20392 1.86783C0.882898 1.86783 0.622636 2.12809 0.622636 2.44912V6.18486C0.622636 6.50588 0.882898 6.76614 1.20392 6.76614H2.49051V9.99043C1.00377 10.8428 0 12.4458 0 14.279C0 17.0027 2.21594 19.2186 4.93966 19.2186C7.66338 19.2186 9.87932 17.0027 9.87932 14.279C9.87932 13.3541 9.6236 12.488 9.17949 11.7471H16.8108V14.3906C15.7401 14.6523 14.943 15.6193 14.943 16.7694C14.943 18.12 16.0417 19.2186 17.3921 19.2186C18.7426 19.2186 19.8413 18.1199 19.8413 16.7694C19.8413 15.6193 19.0441 14.6523 17.9734 14.3906V11.7471H19.26ZM4.93966 18.0561C2.85699 18.0561 1.16257 16.3616 1.16257 14.279C1.16257 12.1963 2.85699 10.5019 4.93966 10.5019C7.02234 10.5019 8.71675 12.1963 8.71675 14.279C8.71675 16.3616 7.02234 18.0561 4.93966 18.0561ZM18.6787 16.7694C18.6787 17.4789 18.1015 18.056 17.3921 18.056C16.6827 18.056 16.1055 17.4788 16.1055 16.7694C16.1055 16.06 16.6827 15.4829 17.3921 15.4829C18.1015 15.4829 18.6787 16.06 18.6787 16.7694ZM8.57178 10.5845V5.52087H18.6787V10.5845H8.57178Z"/>
            </g>
            <defs>
                <clipPath id="clip0">
                    <rect width="19.8413" height="19.8413" fill="white"/>
                </clipPath>
            </defs>

    </symbol>

    <symbol id="category6" viewBox="0 0 20 20">
            <g clip-path="url(#clip0)">
                <path d="M15.5243 8.17096H10.502V5.58179C10.6293 5.59144 10.7691 5.59776 10.918 5.59776C11.7304 5.59776 12.8839 5.4126 13.7658 4.53071C14.3027 3.99371 14.6258 3.16212 14.7261 2.05904C14.7966 1.28306 14.7279 0.648096 14.725 0.621435C14.6981 0.379968 14.5239 0.180625 14.2882 0.121683C14.2683 0.116722 13.7939 0 13.1501 0C12.3377 0 11.1842 0.185121 10.3022 1.06705C8.90143 2.46784 9.24865 4.54613 9.33945 4.97636V8.17096H4.31713C3.9961 8.17096 3.73584 8.43122 3.73584 8.75225V12.488C3.73584 12.809 3.9961 13.0693 4.31713 13.0693H4.75922L5.33326 19.3132C5.36073 19.6124 5.61165 19.8413 5.91206 19.8413H13.9293C14.2297 19.8413 14.4807 19.6124 14.5081 19.3132L15.0822 13.0693H15.5243C15.8454 13.0693 16.1056 12.809 16.1056 12.488V8.75225C16.1056 8.43118 15.8454 8.17096 15.5243 8.17096ZM11.1243 1.88914C11.7248 1.2886 12.5574 1.16257 13.1501 1.16257C13.3168 1.16257 13.4686 1.17246 13.5964 1.18559C13.6139 1.9329 13.5148 3.13759 12.9438 3.70865C12.3433 4.30916 11.5107 4.43522 10.918 4.43522C10.7311 4.43522 10.5631 4.42278 10.4264 4.40728C10.3609 3.82204 10.3509 2.66253 11.1243 1.88914ZM13.399 18.6787H6.44243L5.92667 13.0693H13.9148L13.399 18.6787ZM14.9431 11.9067H14.552H5.2895H4.89841V9.33353H14.9431V11.9067Z"/>
            </g>
            <defs>
                <clipPath id="clip0">
                    <rect width="19.8413" height="19.8413" fill="white"/>
                </clipPath>
            </defs>

    </symbol>


    <symbol id="category7" viewBox="0 0 20 20">
            <g>
                <path d="M7.78669 17.5966L9.2145 18.3361C9.31189 18.3866 9.41727 18.4127 9.52383 18.4127C9.6304 18.4127 9.73578 18.3866 9.83316 18.3361L11.261 17.5957C13.0113 16.6868 14.4983 15.2056 15.5422 13.3313C16.5861 11.457 17.1421 9.27005 17.1429 7.03488V4.19045C17.1429 3.9547 17.0626 3.72861 16.9197 3.56192C16.7768 3.39522 16.583 3.30157 16.381 3.30157C14.0739 3.29559 11.8297 2.42288 9.98097 0.812695C9.84909 0.697298 9.68869 0.634918 9.52383 0.634918C9.35898 0.634918 9.19857 0.697298 9.06669 0.812695C7.21792 2.42288 4.9738 3.29559 2.66669 3.30157C2.46462 3.30157 2.27083 3.39522 2.12794 3.56192C1.98506 3.72861 1.90479 3.9547 1.90479 4.19045V7.03488C1.90565 9.27015 2.46164 11.4572 3.50551 13.3316C4.54937 15.206 6.03638 16.6874 7.78669 17.5966ZM3.42859 5.05089C5.60984 4.88588 7.71389 4.04514 9.52383 2.61535C11.3338 4.04514 13.4378 4.88588 15.6191 5.05089V7.03488C15.6182 8.92585 15.1477 10.776 14.2645 12.3616C13.3812 13.9471 12.1231 15.2001 10.6423 15.969L9.52383 16.5513L8.40536 15.9717C6.92437 15.2024 5.66618 13.9489 4.78295 12.3628C3.89973 10.7768 3.42931 8.92623 3.42859 7.03488V5.05089Z"/>
            </g>

    </symbol>

    <symbol id="category8" viewBox="0 0 126 126">
           <g>
               <rect width="125" height="125" fill="white"/>
               <path d="M92.4787 58.9729L91.2509 43.8852L112.241 22.8944C113.671 21.4642 113.671 19.1456 112.241 17.7154L95.5996 1.07349C94.9128 0.38672 93.9814 0.000732425 93.0099 0.000732425C92.0388 0.000732425 91.1074 0.38672 90.4206 1.07349L69.3045 22.1895L55.6963 22.1898L34.5796 1.07276C33.8925 0.385988 32.9611 0 31.9899 0C31.0188 0 30.0871 0.385988 29.4003 1.07276L12.7584 17.7152C11.3285 19.1453 11.3285 21.464 12.7584 22.8941L33.7497 43.8852L32.5214 58.9734L12.7584 78.7357C11.3282 80.1658 11.3282 82.4845 12.7584 83.9146L29.1564 100.314L27.4694 121.041C27.3864 122.061 27.7338 123.068 28.4269 123.82C29.1203 124.572 30.0964 125 31.1193 125H93.8801C94.903 125 95.8793 124.572 96.5725 123.82C97.2658 123.068 97.613 122.061 97.53 121.041L95.8427 100.313L112.241 83.9146C113.671 82.4845 113.671 80.1658 112.241 78.7357L92.4787 58.9729ZM93.0099 8.84183L104.473 20.305L87.4633 37.3146L76.0001 25.8514L93.0099 8.84183ZM84.9291 56.4973C84.9113 56.5144 84.892 56.529 84.8744 56.5469L79.142 62.2781L67.6788 50.8147L79.1422 39.3512L83.9228 44.1318L84.9291 56.4973ZM55.6961 29.514L69.3043 29.5138L73.963 34.1725L62.4998 45.6357L51.0374 34.173L55.6961 29.514ZM57.3206 50.8147L45.8577 62.2776L40.1269 56.5471C40.1091 56.5293 40.0898 56.5146 40.0718 56.4973L41.0784 44.132L45.8582 39.352L57.3206 50.8147ZM20.527 20.3043L31.9899 8.8411L49.0003 25.8517L37.5376 37.3146L20.527 20.3043ZM20.5268 81.3253L37.5376 64.3154L43.2617 70.0396C43.2639 70.0418 43.2659 70.0442 43.2678 70.0464C43.27 70.0486 43.2725 70.0506 43.2747 70.0525L49 75.7776L31.9892 92.7887L20.5268 81.3253ZM35.0918 117.676L36.654 98.4821L56.7686 78.3672C57.4554 77.6805 57.8411 76.7491 57.8411 75.7779C57.8411 74.8064 57.4551 73.875 56.7686 73.1883L51.0367 67.4566L62.4996 55.9939L73.9625 67.4571L68.2313 73.1873C67.5445 73.8741 67.1585 74.8055 67.1585 75.7769C67.1585 76.7481 67.5443 77.6797 68.2311 78.3665L88.3454 98.4818L89.9079 117.676H35.0918ZM93.0099 92.788L75.9999 75.7771L87.4631 64.3154L104.473 81.3253L93.0099 92.788Z" fill="#64A400"/>

           </g>
    </symbol>

    <symbol id="ok" viewBox="0 0 30 30">
            <path d="M4.22157 0C1.88307 0 0 1.88307 0 4.22157V25.7785C0 28.117 1.88307 30 4.22157 30H25.7785C28.117 30 30 28.117 30 25.7785V4.22157C30 1.88307 28.117 0 25.7785 0H4.22157ZM15.6722 3.06564C19.0767 3.06564 21.8447 5.83476 21.8447 9.23907C21.8447 12.6431 19.0767 15.4106 15.6722 15.4106C12.2676 15.4106 9.49782 12.6431 9.49782 9.23907C9.49782 5.83476 12.2676 3.06564 15.6722 3.06564ZM15.6066 6.68253C14.2275 6.71763 13.1156 7.85205 13.1156 9.2391C13.1156 10.6476 14.2628 11.7938 15.6722 11.7938C17.0813 11.7938 18.2269 10.6476 18.2269 9.2391C18.2269 7.83006 17.0813 6.68253 15.6722 6.68253C15.6502 6.68253 15.6285 6.68196 15.6066 6.68253ZM10.5609 15.6207C10.8879 15.6218 11.2178 15.7117 11.5153 15.8991C14.0422 17.488 17.2996 17.489 19.8272 15.8991C20.6735 15.3661 21.7889 15.622 22.3219 16.4682C22.8542 17.3129 22.5985 18.4298 21.7528 18.9619C20.6502 19.6549 19.4385 20.1567 18.1687 20.446L21.6206 23.8979C22.3273 24.6031 22.3273 25.7491 21.6206 26.4554C20.9136 27.1619 19.7698 27.1619 19.0641 26.4554L15.6703 23.0635L12.2803 26.4554C11.9273 26.8085 11.4641 26.9851 11.0016 26.9851C10.5385 26.9851 10.0769 26.8081 9.72282 26.4554C9.01629 25.7487 9.0165 24.6046 9.72282 23.8979L13.1728 20.446C11.9165 20.1595 10.7042 19.6623 9.58782 18.9619C8.7438 18.4298 8.49 17.3141 9.0225 16.4682C9.35436 15.9393 9.915 15.6406 10.4953 15.6216C10.5172 15.6209 10.5391 15.6206 10.561 15.6207H10.5609Z" fill="#64A400"/>

    </symbol>

    <symbol id="fb" viewBox="0 0 30 30">
            <path d="M5.47782 0C2.44335 0 0 2.44335 0 5.47782V24.5222C0 27.5567 2.44335 30 5.47782 30H15.7997V18.2719H12.6985V14.0494H15.7997V10.4419C15.7997 7.60764 17.6321 5.00532 21.8531 5.00532C23.5622 5.00532 24.826 5.16939 24.826 5.16939L24.7266 9.11253C24.7266 9.11253 23.4377 9.10035 22.0312 9.10035C20.5091 9.10035 20.265 9.80169 20.265 10.966V14.0494H24.8475L24.6478 18.2719H20.265V30.0001H24.5222C27.5567 30.0001 30 27.5567 30 24.5222V5.47785C30 2.44338 27.5567 3e-05 24.5222 3e-05H5.47779L5.47782 0Z" fill="#64A400"/>

    </symbol>

    <symbol id="vk" viewBox="0 0 30 30">
            <path d="M5.88102 0.00183105C2.64765 0.00183105 0.00195312 2.64753 0.00195312 5.8809V24.1265C0.00195312 27.3599 2.64765 30.0056 5.88102 30.0056H24.1267C27.36 30.0056 30.0057 27.3599 30.0057 24.1265V5.8809C30.0057 2.64753 27.36 0.00183105 24.1267 0.00183105H5.88102ZM9.24666 6.77151H15.1651C16.3943 6.77151 17.3279 6.81648 17.9617 6.91308C18.5954 7.00485 19.1907 7.20156 19.7438 7.5009C20.3424 7.82337 20.7921 8.25762 21.0882 8.79558C21.3843 9.33672 21.5345 9.95871 21.5345 10.6659C21.5345 11.4832 21.3305 12.2097 20.9195 12.8475C20.5124 13.4852 19.9475 13.9542 19.2292 14.2575V14.3447C20.2628 14.5642 21.0918 15.0057 21.7136 15.6778C22.3363 16.3506 22.6473 17.2563 22.6473 18.3937C22.6473 19.2262 22.4901 19.9605 22.1748 20.5903C21.8596 21.2201 21.4375 21.739 20.9036 22.154C20.2738 22.6489 19.5826 22.9982 18.8251 23.2097C18.0725 23.4204 17.1164 23.5256 15.9526 23.5256H9.24669V6.77154L9.24666 6.77151ZM13.4326 9.84276V13.3884H13.9623C14.6806 13.3884 15.1882 13.381 15.4763 13.3659C15.7645 13.3508 16.0644 13.2736 16.3717 13.1315C16.7053 12.9743 16.9403 12.756 17.0663 12.479C17.1932 12.1988 17.2585 11.8753 17.2585 11.5106C17.2585 11.2384 17.1893 10.9613 17.0504 10.6772C16.9123 10.393 16.6978 10.1853 16.4016 10.0584C16.1255 9.93549 15.7989 9.87069 15.4182 9.85872C15.0383 9.84672 14.4737 9.84279 13.7251 9.84279H13.4326L13.4326 9.84276ZM13.4326 16.2581V20.4525H13.6595C14.7546 20.4525 15.5109 20.4442 15.9292 20.429C16.3474 20.4139 16.7783 20.3146 17.2117 20.1262C17.5964 19.961 17.8726 19.7189 18.0498 19.3997C18.2262 19.0812 18.3142 18.7199 18.3142 18.3168C18.3142 17.798 18.2117 17.3949 18.0001 17.1028C17.7894 16.8074 17.4742 16.5881 17.0551 16.4381C16.8013 16.3383 16.4477 16.2842 16.0023 16.2731C15.5569 16.2619 14.9583 16.2581 14.2089 16.2581H13.4326H13.4326Z" fill="#64A400"/>

    </symbol>

    <symbol id="blockquote" viewBox="0 0 37 30">
            <path d="M16.7249 23.05C16.7249 21.2 16.2249 19.6 15.1999 18.3C13.6499 16.35 10.6249 16.1 8.87493 16.5C8.14993 12.375 11.6499 7.125 16.1749 4.875L12.6999 0C5.87493 3.25 -0.850068 10.7 0.299932 20.125C1.02493 26.075 4.47493 30 9.34993 30C11.4749 30 13.2499 29.375 14.6499 28.125C16.0499 26.875 16.7249 25.175 16.7249 23.05ZM36.8499 23.05C36.8499 21.2 36.3499 19.6 35.3249 18.3C33.7499 16.35 30.7499 16.1 28.9999 16.5C28.2749 12.375 31.7749 7.125 36.2999 4.875L32.8249 0C25.9999 3.25 19.2999 10.7 20.4499 20.125C21.1749 26.075 24.5999 30 29.4749 30C31.5999 30 33.3749 29.375 34.7749 28.125C36.1749 26.875 36.8499 25.175 36.8499 23.05Z" fill="#416B00"/>

    </symbol>

</svg>


